<?xml version="1.0" encoding="UTF-8" standalone="no"?>
<!-- Created with Inkscape (http://www.inkscape.org/) -->
<svg id="svg2" xmlns:rdf="http://www.w3.org/1999/02/22-rdf-syntax-ns#" xmlns="http://www.w3.org/2000/svg" height="400" width="400" version="1.1" xmlns:cc="http://creativecommons.org/ns#" xmlns:dc="http://purl.org/dc/elements/1.1/">
 <metadata id="metadata7">
  <rdf:RDF>
   <cc:Work rdf:about="">
    <dc:format>image/svg+xml</dc:format>
    <dc:type rdf:resource="http://purl.org/dc/dcmitype/StillImage"/>
    <dc:title/>
   </cc:Work>
  </rdf:RDF>
 </metadata>
 <g id="layer1" transform="translate(-214.53 -398.36)">
  <path id="path3198" opacity="0.99" d="m501.87 728.31-0.93877-22.061s-7.5102-2.8163-23-17.367-53.51-90.591-53.51-90.591-1.6595-5.7107 3.9755-7.3678c4.2721-1.2563 12.953-0.63729 18.949 0.49786 6.6352 1.2563 19.872 31.093 19.872 31.093s12.205 7.3086 12.32-1.9562c0.17448-13.969 0.3-116.05 0-130.11-0.29491-13.822 25.557-13.94 25.557 0s0.29609 88.126 0.29609 88.126c0.0391 4.8858 8.6836 6.0924 8.9183 0.46939 0.20512-4.9146 0.0789-78.457 0.0789-93.242 0-14.786 27.849-14.247 27.849 0.77354 0 15.02-0.33934 84.646 0.0306 92.16 0.38103 7.739 9.1692 6.805 9.2933 0 0.17092-9.3675 0.17081-70.199 0.46939-83.405 0.29857-13.207 24.853-12.908 25.087-0.2347 0.23469 12.673 0 87.301 0 92.933 0 5.6326 9.2933 6.3367 9.2933 0v-55.76c0-13.94 18.821-12.673 18.587 0-0.28693 15.494 0 134.75 0 134.75s-0.32466 25.43-18.639 37.583c0 0-8.9183 3.051-8.4489 9.153 0.46943 6.102 0.00005 14.082 0.00005 14.082z" stroke-width="0" fill="#ccd8e2"/>
  <ellipse id="right-hand-1" opacity="0.274" fill-rule="evenodd" rx="15.607" ry="16.311" cy="597.12" cx="436.63" fill="#fc0"/>
  <path id="path4164" opacity="0.99" d="m331.75 728.31 0.93877-22.061s7.5102-2.8163 23-17.367 53.51-90.591 53.51-90.591 1.6595-5.7107-3.9755-7.3678c-4.2721-1.2563-12.953-0.63729-18.949 0.49786-6.6352 1.2563-19.872 31.093-19.872 31.093s-12.205 7.3086-12.32-1.9562c-0.17449-13.969-0.30001-116.05 0-130.11 0.2949-13.822-25.557-13.94-25.557 0s-0.29609 88.126-0.29609 88.126c-0.0391 4.8858-8.6836 6.0924-8.9183 0.46939-0.20513-4.9146-0.0789-78.457-0.0789-93.242 0-14.786-27.849-14.247-27.849 0.77354 0 15.02 0.33934 84.646-0.0306 92.16-0.38102 7.739-9.1692 6.805-9.2933 0-0.17092-9.3675-0.17081-70.199-0.46938-83.405-0.29858-13.207-24.853-12.908-25.087-0.2347-0.23468 12.673 0 87.301 0 92.933 0 5.6326-9.2933 6.3367-9.2933 0v-55.76c0-13.94-18.821-12.673-18.587 0 0.28692 15.494 0 134.75 0 134.75s0.32465 25.43 18.639 37.583c0 0 8.9183 3.051 8.4489 9.153-0.46944 6.102-0.00006 14.082-0.00006 14.082z" stroke-width="0" fill="#ccd8e2"/>
  <ellipse id="ellipse4166" opacity="0.274" fill-rule="evenodd" rx="15.607" ry="16.311" transform="scale(-1,1)" cy="597.12" cx="-396.99" fill="#fc0"/>
 </g>
</svg>
