<?xml version="1.0" encoding="UTF-8" standalone="no"?>
<!-- Created with Inkscape (http://www.inkscape.org/) -->
<svg id="svg2" xmlns:rdf="http://www.w3.org/1999/02/22-rdf-syntax-ns#" xmlns="http://www.w3.org/2000/svg" height="275.21" width="205.47" version="1.1" xmlns:cc="http://creativecommons.org/ns#" xmlns:dc="http://purl.org/dc/elements/1.1/">
 <metadata id="metadata7">
  <rdf:RDF>
   <cc:Work rdf:about="">
    <dc:format>image/svg+xml</dc:format>
    <dc:type rdf:resource="http://purl.org/dc/dcmitype/StillImage"/>
    <dc:title/>
   </cc:Work>
  </rdf:RDF>
 </metadata>
 <g id="layer1" transform="matrix(-1 0 0 1 420.02 -523.15)">
  <g id="g5">
   <path id="path3198" opacity="0.99" d="m301.53 798.31-1.0102-23.739s-8.0812-3.0305-24.749-18.688c-16.668-15.657-57.579-97.48-57.579-97.48s-1.7857-6.145 4.2778-7.928c4.5969-1.3518 13.938-0.68575 20.39 0.53572 7.1397 1.3518 21.383 33.457 21.383 33.457s13.133 7.8644 13.257-2.105c0.18775-15.032 0.32282-124.87 0-140-0.31733-14.873 27.5-15 27.5 0s0.3186 94.827 0.3186 94.827c0.0421 5.2573 9.3439 6.5557 9.5964 0.50508 0.22072-5.2884 0.0849-84.422 0.0849-100.33 0-15.91 29.967-15.33 29.967 0.83236s-0.36515 91.083 0.0329 99.168c0.41 8.3275 9.8664 7.3224 10 0 0.18392-10.08 0.1838-75.537 0.50508-89.747 0.32128-14.211 26.742-13.89 26.995-0.25254 0.25253 13.637 0 93.939 0 100 0 6.0609 10 6.8185 10 0v-60c0-15 20.253-13.637 20 0-0.30874 16.672 0 145 0 145s-0.34934 27.364-20.056 40.44c0 0-9.5965 3.283-9.0914 9.849 0.51 6.56 0 15.14 0 15.14z" stroke-width="0" fill="#ccd8e2"/>
   <g id="g8" fill="#fc0" fill-rule="evenodd">
    <path id="right-hand-4" opacity="0.274" d="m310.37 546.78c0 8.9263-7.01 16.162-15.657 16.162-8.6473 0-15.657-7.2362-15.657-16.162 0-8.9263 7.01-16.162 15.657-16.162 8.65 0 15.66 7.23 15.66 16.16z" transform="matrix(1.0726,0,0,1.0859,53.898,-43.959)"/>    
   </g>
  </g>
 </g>
</svg>
