<svg xmlns="http://www.w3.org/2000/svg" width="64" height="64" viewBox="0 0 64 64"><path fill="#285E87" d="M20.453 28L36.441.308A32.21 32.21 0 0 0 32 0C23.268 0 15.355 3.499 9.581 9.169L20.453 28zm9.238-8h31.981C57.974 10.865 50.181 3.826 40.567 1.162L29.691 20zm-6.929 20L6.775 12.309A31.86 31.86 0 0 0 0 32c0 2.763.35 5.443 1.008 8h21.754zm18.476-16l15.987 27.691A31.86 31.86 0 0 0 64 32c0-2.762-.35-5.443-1.008-8H41.238zm-6.929 20H2.328c3.698 9.135 11.491 16.174 21.104 18.838L34.308 44zm9.238-8L27.559 63.692A32.21 32.21 0 0 0 32 64c8.732 0 16.645-3.499 22.419-9.169L43.547 36z"/></svg>